<mxfile host="app.diagrams.net" modified="2023-09-25T02:41:33.878Z" agent="Mozilla/5.0 (Windows NT 10.0; Win64; x64) AppleWebKit/537.36 (KHTML, like Gecko) Chrome/116.0.0.0 Safari/537.36 OPR/102.0.0.0" etag="IGL1b8En4Xk_ngRWuE-M" version="21.7.5" type="github">
  <diagram name="Page-1" id="a_svrmmhF7PLVwfIOrKu">
    <mxGraphModel dx="392" dy="225" grid="1" gridSize="10" guides="1" tooltips="1" connect="1" arrows="1" fold="1" page="1" pageScale="1" pageWidth="850" pageHeight="1100" math="0" shadow="0">
      <root>
        <mxCell id="0" />
        <mxCell id="1" parent="0" />
        <mxCell id="uGsk2YM_fLH1zxpMiHb5-3" value="" style="edgeStyle=orthogonalEdgeStyle;rounded=0;orthogonalLoop=1;jettySize=auto;html=1;" edge="1" parent="1" source="uGsk2YM_fLH1zxpMiHb5-1" target="uGsk2YM_fLH1zxpMiHb5-2">
          <mxGeometry relative="1" as="geometry" />
        </mxCell>
        <mxCell id="uGsk2YM_fLH1zxpMiHb5-1" value="Start" style="strokeWidth=2;html=1;shape=mxgraph.flowchart.terminator;whiteSpace=wrap;" vertex="1" parent="1">
          <mxGeometry x="375" y="60" width="100" height="60" as="geometry" />
        </mxCell>
        <mxCell id="uGsk2YM_fLH1zxpMiHb5-14" value="" style="edgeStyle=orthogonalEdgeStyle;rounded=0;orthogonalLoop=1;jettySize=auto;html=1;" edge="1" parent="1" source="uGsk2YM_fLH1zxpMiHb5-2" target="uGsk2YM_fLH1zxpMiHb5-13">
          <mxGeometry relative="1" as="geometry" />
        </mxCell>
        <mxCell id="uGsk2YM_fLH1zxpMiHb5-2" value="float pi = 3.14&lt;br&gt;float r, l" style="shape=hexagon;perimeter=hexagonPerimeter2;whiteSpace=wrap;html=1;fixedSize=1;strokeWidth=2;" vertex="1" parent="1">
          <mxGeometry x="365" y="190" width="120" height="80" as="geometry" />
        </mxCell>
        <mxCell id="uGsk2YM_fLH1zxpMiHb5-11" style="edgeStyle=orthogonalEdgeStyle;rounded=0;orthogonalLoop=1;jettySize=auto;html=1;entryX=0.5;entryY=0;entryDx=0;entryDy=0;" edge="1" parent="1" source="uGsk2YM_fLH1zxpMiHb5-4" target="uGsk2YM_fLH1zxpMiHb5-8">
          <mxGeometry relative="1" as="geometry" />
        </mxCell>
        <mxCell id="uGsk2YM_fLH1zxpMiHb5-4" value="l = pi * r * r" style="rounded=1;whiteSpace=wrap;html=1;strokeWidth=2;" vertex="1" parent="1">
          <mxGeometry x="365" y="490" width="120" height="60" as="geometry" />
        </mxCell>
        <mxCell id="uGsk2YM_fLH1zxpMiHb5-6" value="End" style="strokeWidth=2;html=1;shape=mxgraph.flowchart.terminator;whiteSpace=wrap;" vertex="1" parent="1">
          <mxGeometry x="375" y="730" width="100" height="60" as="geometry" />
        </mxCell>
        <mxCell id="uGsk2YM_fLH1zxpMiHb5-12" style="edgeStyle=orthogonalEdgeStyle;rounded=0;orthogonalLoop=1;jettySize=auto;html=1;entryX=0.5;entryY=0;entryDx=0;entryDy=0;entryPerimeter=0;" edge="1" parent="1" source="uGsk2YM_fLH1zxpMiHb5-8" target="uGsk2YM_fLH1zxpMiHb5-6">
          <mxGeometry relative="1" as="geometry" />
        </mxCell>
        <mxCell id="uGsk2YM_fLH1zxpMiHb5-8" value="print(l)" style="shape=parallelogram;html=1;strokeWidth=2;perimeter=parallelogramPerimeter;whiteSpace=wrap;rounded=1;arcSize=12;size=0.23;" vertex="1" parent="1">
          <mxGeometry x="323" y="630" width="205" height="60" as="geometry" />
        </mxCell>
        <mxCell id="uGsk2YM_fLH1zxpMiHb5-15" value="" style="edgeStyle=orthogonalEdgeStyle;rounded=0;orthogonalLoop=1;jettySize=auto;html=1;" edge="1" parent="1" source="uGsk2YM_fLH1zxpMiHb5-13" target="uGsk2YM_fLH1zxpMiHb5-4">
          <mxGeometry relative="1" as="geometry" />
        </mxCell>
        <mxCell id="uGsk2YM_fLH1zxpMiHb5-13" value="input r" style="shape=parallelogram;html=1;strokeWidth=2;perimeter=parallelogramPerimeter;whiteSpace=wrap;rounded=1;arcSize=12;size=0.23;" vertex="1" parent="1">
          <mxGeometry x="323" y="340" width="205" height="60" as="geometry" />
        </mxCell>
      </root>
    </mxGraphModel>
  </diagram>
</mxfile>
